<?xml version="1.0" encoding="utf-8"?>
<!-- Generator: Adobe Illustrator 22.1.0, SVG Export Plug-In . SVG Version: 6.00 Build 0)  -->
<svg version="1.1" id="Layer_1" xmlns="http://www.w3.org/2000/svg" xmlns:xlink="http://www.w3.org/1999/xlink" x="0px" y="0px"
	 viewBox="0 0 177.6 77.6" style="enable-background:new 0 0 177.6 77.6;" xml:space="preserve">
<style type="text/css">
	.st0{fill:#009CA6;}
	.st1{fill:#CD006E;}
</style>
<g>
	<path class="st0" d="M106.7,77.6h32.1V49.7c-7.1-1.6-10.9-7.5-10.9-14.8c0-7.8,4.7-14.4,13.4-14.4c8.7,0,13.4,6.5,13.4,14.4
		c0,7.3-3.8,13.3-10.9,14.9v27.8H176V61.1h-14.7v-1.3c10.2-5.4,16.2-15.4,16.2-26.7c0-17.5-13.7-33.1-36.2-33.1
		s-36.2,15.6-36.2,33.1c0,11.3,6,21.1,16.2,26.6v1.4h-14.7V77.6z"/>
	<path class="st1" d="M53.1,59.3V20.4h6.8c11.3,0,17.8,8.8,17.8,19.4s-6.5,19.4-17.8,19.4H53.1z M30.6,77.6h31.2
		c23.7,0,39.2-16.5,39.2-37.8c0-21.1-15.5-37.8-39.2-37.8H30.6V77.6z M12.4,68.3c6.9,0,12.3-5.6,12.3-12.2c0-6.5-5.4-12.1-12.3-12.1
		C5.3,44,0,49.7,0,56.1C0,62.7,5.3,68.3,12.4,68.3 M12.4,35.4c6.9,0,12.3-5.6,12.3-12.2c0-6.5-5.4-12.1-12.3-12.1
		C5.3,11.1,0,16.8,0,23.2C0,29.8,5.3,35.4,12.4,35.4"/>
</g>
</svg>
